<svg width="54" height="28" viewBox="0 0 54 28" fill="none" xmlns="http://www.w3.org/2000/svg">
<path d="M28.4617 15.8364C28.4617 19.3364 26.4617 21.9364 22.4617 22.2364C18.9617 22.2364 15.9617 19.9786 15.9617 15.8364C15.9617 11.6943 18.8195 9.33643 22.9617 9.33643C27.1038 9.33643 28.4617 12.3364 28.4617 15.8364Z" fill="white"/>
<mask id="path-2-inside-1_326_2245" fill="white">
<path d="M26.1617 15.8366C26.1617 17.7696 24.3947 19.8366 22.4617 19.8366C19.9617 19.8366 18.2617 17.7696 18.2617 15.8366C18.2617 13.9036 19.9617 11.8366 22.1617 11.9366C24.7269 12.0532 26.1617 13.9036 26.1617 15.8366Z"/>
</mask>
<path d="M22.1617 11.9366L22.2071 10.9376L22.1617 11.9366ZM25.1617 15.8366C25.1617 16.5127 24.8429 17.2826 24.2937 17.8921C23.7435 18.5027 23.0703 18.8366 22.4617 18.8366V20.8366C23.7861 20.8366 24.963 20.137 25.7795 19.2309C26.5971 18.3236 27.1617 17.0934 27.1617 15.8366H25.1617ZM22.4617 18.8366C20.5401 18.8366 19.2617 17.2438 19.2617 15.8366H17.2617C17.2617 18.2954 19.3833 20.8366 22.4617 20.8366V18.8366ZM19.2617 15.8366C19.2617 15.1505 19.5711 14.389 20.1159 13.8085C20.6527 13.2365 21.3577 12.9011 22.1163 12.9356L22.2071 10.9376C20.7657 10.8721 19.5207 11.5202 18.6575 12.4399C17.8023 13.3512 17.2617 14.5897 17.2617 15.8366H19.2617ZM22.1163 12.9356C24.1373 13.0274 25.1617 14.4281 25.1617 15.8366H27.1617C27.1617 13.3791 25.3165 11.079 22.2071 10.9376L22.1163 12.9356Z" fill="#182156" mask="url(#path-2-inside-1_326_2245)"/>
<circle cx="14.8115" cy="15.8364" r="1.5" fill="#182156" stroke="white"/>
<path d="M23.4617 9.33643C23.4617 9.33643 36.1525 9.34268 36.6525 9.34268C36.7714 9.34268 37.3417 9.24268 37.1525 9.84268C36.6814 11.3364 35.8185 13.8618 35.3117 15.5364C35.0758 16.0462 34.9199 16.3427 34.6525 16.3427C33.6525 16.3427 32.1332 16.3364 30.9617 16.3364C28.4617 16.3364 27.8617 18.8364 27.8617 18.8364V14.3364L23.4617 9.33643Z" fill="white"/>
</svg>
