<svg width="49" height="42" viewBox="0 0 49 42" fill="none" xmlns="http://www.w3.org/2000/svg">
<circle cx="24.5" cy="21.5" r="19.5" fill="#E51C44"/>
<path d="M28 21.5C28 25 26 27.6 22 27.9C18.5 27.9 15.5 25.6421 15.5 21.5C15.5 17.3579 18.3579 15 22.5 15C26.6421 15 28 18 28 21.5Z" fill="white"/>
<mask id="path-3-inside-1_326_2267" fill="white">
<path d="M25.7 21.5002C25.7 23.4332 23.933 25.5002 22 25.5002C19.5 25.5002 17.8 23.4332 17.8 21.5002C17.8 19.5672 19.5 17.5002 21.7 17.6002C24.2652 17.7168 25.7 19.5672 25.7 21.5002Z"/>
</mask>
<path d="M21.7 17.6002L21.7455 16.6012L21.7 17.6002ZM24.7 21.5002C24.7 22.1763 24.3812 22.9462 23.832 23.5556C23.2818 24.1662 22.6086 24.5002 22 24.5002V26.5002C23.3245 26.5002 24.5013 25.8006 25.3178 24.8945C26.1354 23.9872 26.7 22.757 26.7 21.5002H24.7ZM22 24.5002C20.0785 24.5002 18.8 22.9074 18.8 21.5002H16.8C16.8 23.959 18.9216 26.5002 22 26.5002V24.5002ZM18.8 21.5002C18.8 20.8141 19.1094 20.0526 19.6542 19.4721C20.1911 18.9001 20.896 18.5647 21.6546 18.5991L21.7455 16.6012C20.3041 16.5357 19.059 17.1837 18.1959 18.1035C17.3406 19.0147 16.8 20.2533 16.8 21.5002H18.8ZM21.6546 18.5991C23.6756 18.691 24.7 20.0916 24.7 21.5002H26.7C26.7 19.0427 24.8548 16.7425 21.7455 16.6012L21.6546 18.5991Z" fill="#E51C44" mask="url(#path-3-inside-1_326_2267)"/>
<circle cx="14.35" cy="21.5" r="1.5" fill="#E51C44" stroke="white"/>
<path d="M23 15C23 15 35.6908 15.0062 36.1908 15.0062C36.3097 15.0062 36.88 14.9063 36.6908 15.5062C36.2197 17 35.3569 19.5254 34.85 21.2C34.6141 21.7098 34.4582 22.0062 34.1908 22.0062C33.1908 22.0062 31.6716 22 30.5 22C28 22 27.4 24.5 27.4 24.5V20L23 15Z" fill="white"/>
</svg>
