<svg width="60" height="42" viewBox="0 0 60 42" fill="none" xmlns="http://www.w3.org/2000/svg">
<path d="M28.7734 21.5C28.7734 25 26.7734 27.6 22.7734 27.9C19.2734 27.9 16.2734 25.6421 16.2734 21.5C16.2734 17.3579 19.1313 15 23.2734 15C27.4156 15 28.7734 18 28.7734 21.5Z" fill="white"/>
<mask id="path-2-inside-1_118_1809" fill="white">
<path d="M26.4732 21.5002C26.4732 23.4332 24.7062 25.5002 22.7732 25.5002C20.2732 25.5002 18.5732 23.4332 18.5732 21.5002C18.5732 19.5672 20.2732 17.5002 22.4732 17.6002C25.0384 17.7168 26.4732 19.5672 26.4732 21.5002Z"/>
</mask>
<path d="M22.4732 17.6002L22.5186 16.6012L22.4732 17.6002ZM25.4732 21.5002C25.4732 22.1763 25.1544 22.9462 24.6052 23.5556C24.055 24.1662 23.3818 24.5002 22.7732 24.5002V26.5002C24.0976 26.5002 25.2745 25.8006 26.091 24.8945C26.9086 23.9872 27.4732 22.757 27.4732 21.5002H25.4732ZM22.7732 24.5002C20.8517 24.5002 19.5732 22.9074 19.5732 21.5002H17.5732C17.5732 23.959 19.6948 26.5002 22.7732 26.5002V24.5002ZM19.5732 21.5002C19.5732 20.8141 19.8826 20.0526 20.4274 19.4721C20.9643 18.9001 21.6692 18.5647 22.4278 18.5991L22.5186 16.6012C21.0773 16.5357 19.8322 17.1837 18.9691 18.1035C18.1138 19.0147 17.5732 20.2533 17.5732 21.5002H19.5732ZM22.4278 18.5991C24.4488 18.691 25.4732 20.0916 25.4732 21.5002H27.4732C27.4732 19.0427 25.628 16.7425 22.5186 16.6012L22.4278 18.5991Z" fill="#32BD50" mask="url(#path-2-inside-1_118_1809)"/>
<circle cx="15.1235" cy="21.5" r="1.5" fill="#32BD50" stroke="white"/>
<path d="M23.7734 15C23.7734 15 36.4642 15.0062 36.9642 15.0062C37.0832 15.0062 37.6535 14.9063 37.4642 15.5062C36.9931 17 36.1303 19.5254 35.6234 21.2C35.3876 21.7098 35.2317 22.0062 34.9642 22.0062C33.9642 22.0062 32.445 22 31.2734 22C28.7734 22 28.1734 24.5 28.1734 24.5V20L23.7734 15Z" fill="white"/>
</svg>
