<svg width="25" height="25" viewBox="0 0 25 25" fill="none" xmlns="http://www.w3.org/2000/svg">
<g clip-path="url(#clip0_326_2217)">
<path d="M12.4999 5.00049C14.1167 5.00049 15.6012 5.55402 16.7863 6.47455L20.4234 3.00458C18.3087 1.14044 15.5406 0.000488281 12.4999 0.000488281C7.89233 0.000488281 3.89661 2.6004 1.88574 6.41034L5.93018 9.60327C6.90991 6.91986 9.47742 5.00049 12.4999 5.00049Z" fill="#F44336"/>
<path d="M24.3961 13.5023C24.4586 13.0107 24.5 12.5092 24.5 12.0005C24.5 11.1426 24.4063 10.3073 24.2352 9.50049H12.5V14.5005H18.9862C18.4615 15.8643 17.5272 17.0182 16.338 17.8199L20.3975 21.0248C22.5494 19.1359 24.022 16.4908 24.3961 13.5023Z" fill="#2196F3"/>
<path d="M5.5 12.0003C5.5 11.1569 5.65686 10.3519 5.93024 9.60309L1.8858 6.41016C1.00433 8.08032 0.5 9.98047 0.5 12.0003C0.5 13.9976 0.995056 15.8766 1.85822 17.5333L5.90778 14.3362C5.64844 13.6047 5.5 12.8207 5.5 12.0003Z" fill="#FFC107"/>
<path d="M12.4999 19.0005C9.45441 19.0005 6.87036 17.052 5.90771 14.3364L1.85815 17.5334C3.85919 21.374 7.86975 24.0005 12.4999 24.0005C15.5277 24.0005 18.2887 22.8757 20.3974 21.0248L16.338 17.8199C15.2411 18.5594 13.9283 19.0005 12.4999 19.0005Z" fill="#00B060"/>
<path opacity="0.1" d="M12.5001 23.7504C8.96838 23.7504 5.79279 22.2932 3.54761 19.9717C5.74542 22.4382 8.93652 24.0004 12.5001 24.0004C16.0306 24.0004 19.1953 22.469 21.3882 20.0411C19.1497 22.325 15.9982 23.7504 12.5001 23.7504Z" fill="black"/>
<path opacity="0.1" d="M12.5 14.2505V14.5005H18.9862L19.0875 14.2505H12.5Z" fill="black"/>
<path opacity="0.2" d="M12.5 9.50049V9.75049H24.2856C24.2698 9.66797 24.2526 9.5824 24.2352 9.50049H12.5Z" fill="#FEFEFE"/>
<path d="M24.2352 9.50049H12.5V14.5005H18.9862C17.9775 17.1221 15.4772 19.0005 12.5 19.0005C8.63403 19.0005 5.5 15.8665 5.5 12.0005C5.5 8.13446 8.63403 5.00049 12.5 5.00049C13.9019 5.00049 15.1939 5.43115 16.2885 6.14117C16.4561 6.25006 16.6289 6.35229 16.7863 6.47455L20.4235 3.00458L20.3414 2.94147C18.2369 1.11755 15.5035 0.000488281 12.5 0.000488281C5.87256 0.000488281 0.5 5.37305 0.5 12.0005C0.5 18.6279 5.87256 24.0005 12.5 24.0005C18.6177 24.0005 23.6555 19.4193 24.3961 13.5023C24.4586 13.0107 24.5 12.5092 24.5 12.0005C24.5 11.1426 24.4063 10.3073 24.2352 9.50049Z" fill="url(#paint0_linear_326_2217)"/>
<path opacity="0.1" d="M16.2885 5.89099C15.1939 5.18097 13.9019 4.75031 12.5 4.75031C8.63403 4.75031 5.5 7.88428 5.5 11.7503C5.5 11.7925 5.50057 11.8254 5.5013 11.8675C5.56874 8.05981 8.67621 5.00031 12.5 5.00031C13.9019 5.00031 15.1939 5.43097 16.2885 6.14099C16.4561 6.24988 16.6289 6.35211 16.7863 6.47437L20.4235 3.00439L16.7863 6.22437C16.6289 6.10211 16.4561 5.99988 16.2885 5.89099Z" fill="black"/>
<path opacity="0.2" d="M12.5 0.250488C15.475 0.250488 18.1829 1.34888 20.2793 3.14209L20.4235 3.00458L20.3134 2.90876C18.209 1.08485 15.5035 0.000488281 12.5 0.000488281C5.87256 0.000488281 0.5 5.37305 0.5 12.0005C0.5 12.0427 0.505859 12.0834 0.506287 12.1255C0.574036 5.55634 5.91473 0.250488 12.5 0.250488Z" fill="#FEFEFE"/>
</g>
<defs>
<linearGradient id="paint0_linear_326_2217" x1="0.5" y1="12.0005" x2="24.5" y2="12.0005" gradientUnits="userSpaceOnUse">
<stop stop-color="white" stop-opacity="0.2"/>
<stop offset="1" stop-color="white" stop-opacity="0"/>
</linearGradient>
<clipPath id="clip0_326_2217">
<rect width="24" height="24" fill="white" transform="translate(0.192383 0.308105)"/>
</clipPath>
</defs>
</svg>
